<svg xmlns="http://www.w3.org/2000/svg" viewBox="0 0 640 512"><!--!Font Awesome Free 6.7.2 by @fontawesome - https://fontawesome.com License - https://fontawesome.com/license/free Copyright 2025 Fonticons, Inc.--><path d="M208 352c-2.4 0-4.8 .4-7.1 1.1C188 357.3 174.4 360 160 360c-14.4 0-28-2.7-41-6.9-2.3-.7-4.7-1.1-7.1-1.1C49.9 352-.3 402.5 0 464.6 .1 490.9 21.7 512 48 512h224c26.3 0 47.9-21.1 48-47.4 .3-62.1-49.9-112.6-112-112.6zm-48-32c53 0 96-43 96-96s-43-96-96-96-96 43-96 96 43 96 96 96zM592 0H208c-26.5 0-48 22.3-48 49.6V96c23.4 0 45.1 6.8 64 17.8V64h352v288h-64v-64H384v64h-76.2c19.1 16.7 33.1 38.7 39.7 64H592c26.5 0 48-22.3 48-49.6V49.6C640 22.3 618.5 0 592 0z"/></svg>