<svg xmlns="http://www.w3.org/2000/svg" viewBox="0 0 512 512"><!--!Font Awesome Free 6.7.2 by @fontawesome - https://fontawesome.com License - https://fontawesome.com/license/free Copyright 2025 Fonticons, Inc.--><path d="M288 130.5V112h16c8.8 0 16-7.2 16-16V80c0-8.8-7.2-16-16-16h-96c-8.8 0-16 7.2-16 16v16c0 8.8 7.2 16 16 16h16v18.5C115.5 146.1 32 239.2 32 352h448c0-112.8-83.5-205.9-192-221.5zM496 384H16c-8.8 0-16 7.2-16 16v32c0 8.8 7.2 16 16 16h480c8.8 0 16-7.2 16-16v-32c0-8.8-7.2-16-16-16z"/></svg>